<?xml version="1.0" encoding="UTF-8" standalone="no"?>
<!DOCTYPE svg PUBLIC "-//W3C//DTD SVG 1.1//EN" "http://www.w3.org/Graphics/SVG/1.1/DTD/svg11.dtd">
<svg width="100%" height="100%" viewBox="0 0 1526 1526" version="1.1" xmlns="http://www.w3.org/2000/svg" xmlns:xlink="http://www.w3.org/1999/xlink" xml:space="preserve" xmlns:serif="http://www.serif.com/" style="fill-rule:evenodd;clip-rule:evenodd;stroke-linejoin:round;stroke-miterlimit:2;">
    <g transform="matrix(0.64,0,0,0.64,0,0)">
        <g id="Artboard1" transform="matrix(1,0,0,1,3959.15,-292.216)">
            <rect x="-3959.15" y="292.216" width="2383.5" height="2383.5" style="fill:none;"/>
            <g transform="matrix(17.3044,0,0,17.3044,-4270.67,-2980.43)">
                <path d="M141.591,277.138C143.302,276.465 144.769,275.888 146.267,275.299C147.275,276.932 148.277,278.555 149.427,280.417C146.747,279.296 144.268,278.258 141.591,277.138ZM139.62,276.231C138.88,276.296 138.107,275.902 137.348,275.716C138.92,274.778 139.835,273.401 140.525,271.826C141.921,272.79 143.246,273.704 144.627,274.658C143.029,275.466 141.367,276.078 139.62,276.231ZM139.13,271.451C138.793,273.301 138.022,274.027 136.112,274.338C137.182,273.315 138.065,272.469 139.13,271.451ZM129.138,273.089C129.117,272.982 129.095,272.874 129.074,272.766C132.022,271.183 134.506,268.899 136.921,266.572C137.69,267.865 138.422,269.097 139.18,270.373C137.296,271.23 135.894,272.753 134.712,274.736C132.871,274.192 131.004,273.641 129.138,273.089ZM124.302,271.719C127.475,270.44 129.731,268.257 130.744,264.861C132.304,265.391 133.786,265.894 135.409,266.445C133.399,268.402 131.318,270.153 128.957,271.517C127.471,272.375 126.029,272.633 124.302,271.719ZM129.466,264.688C128.832,267.602 126.36,270.029 123.569,270.47C124.994,267.776 126.9,265.962 129.466,264.688ZM116.327,270.166C120.332,267.648 123.631,264.389 126.46,260.809C127.337,261.708 128.177,262.57 129.085,263.5C125.953,265.229 123.444,267.623 122.013,271.319C120.089,270.929 118.208,270.547 116.327,270.166ZM111.673,269.323C115.445,266.754 118.471,263.692 119.369,258.857C121.368,259.434 123.228,259.969 125.142,260.521C124.113,262.215 122.702,263.621 121.218,264.884C119.571,266.286 117.797,267.524 116.006,268.702C114.764,269.518 113.375,269.92 111.673,269.323ZM118.092,258.932C117.164,263.649 114.22,266.428 110.418,268.39C112.18,264.46 114.229,260.805 118.092,258.932ZM102.812,268.192C107.662,264.144 111.396,259.376 114.618,253.929C115.72,255.247 116.684,256.401 117.711,257.63C113.27,259.939 110.98,264.29 108.771,268.939C106.922,268.707 105.018,268.469 102.812,268.192ZM98.625,267.678C103.692,262.745 103.991,261.3 106.593,252.733C108.809,253.08 111.028,253.428 113.385,253.798C113.002,254.439 112.622,255.115 112.206,255.764C109.734,259.62 106.858,263.072 103.546,266.081C103.118,266.47 102.641,266.797 102.214,267.188C101.123,268.187 99.931,268.034 98.625,267.678ZM105.072,252.936C105.272,256.628 101.476,263.959 97.939,266.458C99.528,261.211 100.746,256.137 105.072,252.936ZM96.433,267.489C94.146,267.3 91.907,267.115 89.417,266.91C94.904,262.057 99.772,257.07 101.099,249.176C102.37,250.101 103.449,250.886 104.523,251.667C104.5,251.775 104.507,251.908 104.456,251.946C101.178,254.345 99.491,257.952 98.217,261.861C97.685,263.492 97.232,265.155 96.734,266.8C96.664,267.031 96.542,267.243 96.433,267.489ZM89.024,265.242C92.329,261.974 94.665,258.052 95.828,253.332C96.265,251.561 96.28,251.566 96.089,250.23C95.5,250.115 94.871,249.988 94.24,249.868C92.518,249.541 90.924,248.859 89.47,247.793C89.2,247.594 88.935,247.38 88.696,247.14C87.701,246.137 87.727,245.552 88.766,244.377C88.639,243.791 88.626,243.163 88.371,242.693C88.051,242.103 87.537,241.639 87.095,241.132C87.045,241.075 86.877,241.048 86.836,241.091C86.338,241.609 85.854,242.143 85.366,242.672C85.83,243.361 84.996,243.714 85.004,244.25C85.052,244.381 85.064,244.5 85.124,244.562C86.089,245.563 86.118,246.167 85.119,247.122C83.57,248.602 81.717,249.408 79.724,249.848C79.269,249.949 78.8,249.972 78.343,250.067C77.583,250.225 77.383,250.492 77.548,251.346C78.351,255.51 79.814,259.335 82.432,262.55C83.102,263.373 83.784,264.184 84.396,265.076C83.391,264.736 82.711,263.907 81.975,263.184C79.709,260.96 77.659,258.525 76.036,255.685C74.958,253.798 74.35,251.718 73.853,249.581C73.615,248.557 73.889,247.733 74.639,247.169C75.865,246.249 77.101,245.319 78.415,244.565C80.788,243.205 82.896,241.442 84.952,239.599C85.664,238.96 86.229,238.123 86.837,237.405C87.777,238.367 88.721,239.405 89.733,240.355C91.724,242.224 93.94,243.723 96.261,245.059C97.285,245.649 98.246,246.394 99.171,247.163C99.861,247.737 100.166,248.441 99.949,249.554C99.384,252.466 98.306,255.088 96.695,257.447C94.985,259.952 92.985,262.169 90.813,264.194C90.322,264.651 89.772,265.033 89.249,265.45C89.174,265.381 89.099,265.311 89.024,265.242ZM88.45,248.518C90.689,250.024 92.743,250.937 95.192,251.178C94.26,256.132 92.33,260.21 88.834,263.758C89.197,258.58 90.1,253.655 88.45,248.518ZM86.931,265.613C85.107,262.176 85.028,252.204 86.839,247.593C88.809,251.146 88.829,261.722 86.931,265.613ZM85.027,263.819C81.502,260.224 79.534,256.136 78.631,251.218C80.981,250.901 83.107,250.094 85.303,248.527C83.832,253.681 84.519,258.572 85.027,263.819ZM80.854,267.183C79.727,267.416 78.557,267.396 77.345,267.491C76.714,265.471 76.125,263.49 75.477,261.534C74.466,258.483 73.198,255.591 70.956,253.358C70.409,252.814 69.817,252.325 69.162,251.736C70.376,250.867 71.459,250.091 72.688,249.211C74.068,256.996 78.844,262.054 84.275,266.771C83.122,267.346 81.951,266.956 80.854,267.183ZM68.572,252.941C70.011,253.691 70.975,254.894 71.841,256.192C73.06,258.017 73.897,260.067 74.574,262.194C74.996,263.522 75.401,264.856 75.87,266.367C72.669,264.588 70.042,259.869 68.572,252.941ZM71.889,267.351C70.006,265.603 68.07,263.911 66.308,262.025C64.036,259.594 62.195,256.757 60.39,253.807C62.742,253.434 64.933,253.087 67.213,252.725C67.708,254.313 68.211,256 68.762,257.668C69.656,260.376 70.745,262.977 72.619,265.064C73.398,265.931 74.264,266.704 75.186,267.615C73.99,268 72.888,268.279 71.889,267.351ZM65.044,268.949C62.872,264.374 60.599,259.985 56.094,257.638C57.102,256.434 58.118,255.218 59.201,253.923C62.351,259.304 66.099,264.078 70.996,268.189C68.822,268.466 66.948,268.706 65.044,268.949ZM55.669,258.741C59.586,260.768 61.596,264.422 63.601,268.419C60.067,267.457 56.092,262.571 55.669,258.741ZM58.1,268.874C55.934,267.665 53.897,266.227 52.089,264.435C50.88,263.238 49.709,261.994 48.359,260.603C50.544,259.981 52.369,259.46 54.37,258.891C54.968,260.935 55.616,263.155 57.113,264.794C58.58,266.402 60.211,267.831 61.722,269.292C60.517,269.786 59.671,269.75 58.1,268.874ZM51.823,271.322C50.38,267.69 47.932,265.231 44.661,263.491C45.59,262.676 46.484,261.891 47.483,261.014C50.202,264.327 53.464,267.691 57.537,270.153C55.653,270.538 53.768,270.924 51.823,271.322ZM44.305,265.015C46.106,265.13 49.2,268.065 50.115,270.617C47.249,269.628 45.323,267.947 44.305,265.015ZM45.352,271.755C42.738,270.456 40.525,268.524 38.398,266.43C39.968,265.908 41.421,265.425 43.027,264.891C44.115,268.115 46.244,270.463 49.447,271.67C47.446,272.604 47.108,272.628 45.352,271.755ZM39.151,274.74C37.96,272.858 36.562,271.254 34.644,270.359C35.397,269.1 36.106,267.914 36.907,266.576C39.384,268.975 41.845,271.225 44.748,273.05C42.902,273.607 41.055,274.165 39.151,274.74ZM34.629,271.973C34.711,271.865 34.794,271.757 34.877,271.649C35.742,272.468 36.608,273.288 37.473,274.107C35.963,274.163 35.152,273.266 34.629,271.973ZM29.094,274.706C30.535,273.722 31.863,272.815 33.282,271.847C34.023,273.44 34.952,274.813 36.638,275.494C33.838,277.079 31.548,275.512 29.094,274.706ZM24.395,280.425C25.522,278.592 26.489,277.02 27.569,275.264C28.269,275.566 28.992,275.9 29.73,276.192C30.471,276.484 31.226,276.734 32.261,277.105C29.575,278.239 27.113,279.278 24.395,280.425ZM152.49,281.792C150.845,280.403 149.558,278.656 148.403,276.79C148.024,276.178 147.754,275.485 147.502,274.968C148.156,274.339 148.726,273.897 149.168,273.334C149.539,272.859 149.442,272.256 149.054,271.792C148.645,271.301 148.129,271.297 147.667,271.67C147.299,271.967 146.969,272.34 146.678,272.729C146.009,273.621 145.832,273.81 144.944,273.293C143.596,272.509 142.27,271.627 141.077,270.59C139.642,269.343 138.577,267.722 137.966,265.778C138.327,265.326 138.703,264.94 138.984,264.484C139.492,263.66 139.343,262.775 138.681,262.339C138.044,261.918 137.242,262.274 136.883,263.197C136.686,263.705 136.59,264.26 136.456,264.763C133.697,265.59 129.147,262.978 127.509,259.513C127.651,259.421 127.88,259.318 128.048,259.146C128.214,258.977 128.341,258.749 128.444,258.524C128.778,257.785 128.659,257.072 128.128,256.77C127.54,256.435 127.014,256.629 126.659,257.197C126.32,257.74 126.065,258.344 125.728,259.011C121.628,259.296 117.51,256.824 115.567,252.896C115.696,252.667 115.864,252.423 115.982,252.152C116.4,251.187 116.23,250.368 115.563,250.052C114.974,249.773 114.414,250.249 114.118,251.282C113.78,252.459 113.78,252.507 112.708,252.485C110.405,252.439 108.169,251.961 106.032,251.012C104.431,250.3 102.942,249.374 101.688,247.971C101.815,247.5 101.991,247.073 102.033,246.63C102.075,246.189 102.063,245.697 101.919,245.294C101.823,245.024 101.464,244.722 101.208,244.707C100.963,244.692 100.634,244.974 100.463,245.225C100.259,245.526 100.184,245.933 100.083,246.211C98.288,245.064 96.512,244.044 94.85,242.835C92.914,241.427 91.039,239.909 89.217,238.329C88.231,237.474 87.417,236.467 87.992,234.792C88.298,233.9 87.591,232.787 86.972,232.719C86.313,232.647 85.772,233.549 85.807,234.665C85.812,234.818 85.785,234.999 85.849,235.118C86.405,236.145 85.84,236.882 85.284,237.566C84.792,238.173 84.206,238.69 83.659,239.244C80.718,242.222 76.936,243.774 73.668,246.402C73.606,246.122 73.56,245.943 73.527,245.76C73.419,245.169 73.225,244.65 72.567,244.669C72.073,244.683 71.686,245.273 71.737,246.061C71.78,246.708 71.965,247.343 72.084,247.967C70.994,249.158 69.405,250.213 67.696,251.002C67.045,251.302 66.377,251.558 65.712,251.774C64.663,252.115 63.624,252.345 62.675,252.431C62.636,252.434 62.596,252.439 62.558,252.442C61.523,252.524 60.602,252.434 59.906,252.133C59.845,251.915 59.795,251.693 59.738,251.473C59.682,251.253 59.619,251.036 59.535,250.83C59.229,250.079 58.736,249.808 58.235,250.061C57.619,250.372 57.464,250.944 57.645,251.595C57.778,252.073 58.03,252.511 58.227,252.963C57.591,254.214 56.702,255.336 55.672,256.266C54.954,256.913 54.165,257.46 53.347,257.897C53.086,258.037 52.823,258.163 52.558,258.279C52.348,258.37 52.138,258.452 51.927,258.528C50.594,259 49.237,259.158 48.008,258.899C47.879,258.628 47.762,258.35 47.638,258.076C47.514,257.804 47.382,257.535 47.225,257.287C46.784,256.589 46.155,256.431 45.663,256.798C45.179,257.16 45.033,257.912 45.392,258.586C45.622,259.018 45.959,259.382 46.247,259.775C44.968,262.03 42.082,264.359 39.823,264.844C38.991,265.022 38.091,265.349 37.304,264.671C37.169,264.14 37.094,263.628 36.909,263.168C36.56,262.298 35.839,261.951 35.227,262.288C34.552,262.66 34.33,263.599 34.79,264.41C35.056,264.878 35.433,265.27 35.748,265.682C35.485,266.987 35.272,267.461 34.302,268.794C32.881,270.747 31.136,272.255 29.046,273.253C28.019,273.743 27.807,273.62 27.148,272.764C26.798,272.309 26.393,271.841 25.921,271.575C25.186,271.162 24.436,271.696 24.514,272.585C24.559,273.085 24.854,273.62 25.169,274.012C25.457,274.37 25.922,274.555 26.455,274.915C25.84,275.964 25.357,277.027 24.673,277.903C23.557,279.333 22.311,280.641 21.119,282.001C20.865,282.291 20.477,282.604 20.854,283.006C20.994,283.155 21.436,283.09 21.683,282.974C26.6,280.653 31.575,278.49 36.707,276.82C40.766,275.5 44.857,274.268 48.983,273.235C52.838,272.271 56.742,271.484 60.656,270.866C65.629,270.08 70.634,269.534 75.627,268.902C79.325,268.433 83.029,268.06 86.762,268.187C88.201,268.236 89.65,268.087 91.084,268.202C94.657,268.491 98.23,268.809 101.791,269.241C110.031,270.242 118.229,271.49 126.317,273.594C130.94,274.797 135.516,276.15 139.995,277.852C144.041,279.389 147.995,281.215 151.99,282.913C152.274,283.033 152.559,283.148 152.851,283.269C153.29,282.518 152.916,282.152 152.49,281.792Z" style="fill:rgb(35,31,32);fill-rule:nonzero;"/>
            </g>
        </g>
    </g>
</svg>
