<?xml version="1.0" encoding="UTF-8" standalone="no"?>
<!DOCTYPE svg PUBLIC "-//W3C//DTD SVG 1.1//EN" "http://www.w3.org/Graphics/SVG/1.1/DTD/svg11.dtd">
<svg width="100%" height="100%" viewBox="0 0 2384 2384" version="1.1" xmlns="http://www.w3.org/2000/svg" xmlns:xlink="http://www.w3.org/1999/xlink" xml:space="preserve" xmlns:serif="http://www.serif.com/" style="fill-rule:evenodd;clip-rule:evenodd;stroke-linejoin:round;stroke-miterlimit:2;">
    <g transform="matrix(1,0,0,1,0,-2576.16)">
        <g id="Artboard1" transform="matrix(1,0,0,1,3959.15,2283.94)">
            <rect x="-3959.15" y="292.216" width="2383.5" height="2383.5" style="fill:none;"/>
            <g transform="matrix(15.4553,0,0,15.4553,-6631.23,-2601.9)">
                <path d="M310.411,276.399C311.002,276.38 311.452,276.234 311.825,276.375C313.972,277.186 315.322,279.616 315.464,283.174C313.377,281.211 311.654,279.311 310.411,276.399ZM299.516,269.456C296.824,268.133 294.397,266.048 291.572,265.181C289.581,264.57 288.116,263.3 286.831,261.578C285.168,259.35 284.964,256.69 286.187,254.062C287.551,251.131 289.546,249.879 292.098,250.351C294.77,250.845 296.532,252.633 296.948,255.273C297.233,257.083 296.397,259.139 295.13,259.74C293.583,260.473 291.178,259.705 290.406,258.203C290.074,257.559 289.905,256.862 290.525,256.304C291.057,255.825 291.622,255.749 292.155,256.335C292.242,256.431 292.317,256.544 292.389,256.656C292.681,257.106 292.998,257.751 293.525,257.287C294.182,256.71 293.787,255.998 293.416,255.426C292.609,254.181 291.026,253.906 289.828,254.762C288.681,255.583 288.357,257.134 289.01,258.685C289.976,260.985 292.969,262.308 295.291,261.462C297.304,260.728 298.504,258.552 298.309,255.387C298.109,252.142 296.351,250.329 293.98,249.172C293.485,248.931 292.957,248.784 292.261,248.525C293.611,246.301 293.8,244.128 292.741,241.939C292.4,241.235 291.83,240.631 291.259,240.164C291.026,239.973 290.511,240.268 290.125,240.343C290.259,240.749 290.354,241.183 290.543,241.55C290.658,241.772 290.943,241.861 291.11,242.058C291.958,243.053 292.24,244.899 291.765,246.223C291.275,247.587 289.782,248.786 288.618,248.626C288.169,248.565 287.659,248.33 287.33,247.975C285.956,246.495 285.561,242.988 286.458,240.844C287.509,238.333 289.045,237.322 291.496,238.012C293.104,238.465 294.693,239.25 296.143,240.204C298.544,241.784 299.317,244.723 299.876,247.646C300.191,249.291 300.195,251.029 300.254,252.73C300.406,257.067 300.468,261.408 300.655,265.74C300.718,267.212 301.047,268.668 301.29,270.381C300.637,270.039 300.081,269.733 299.516,269.456ZM275.151,260.485C278.079,259.475 280.988,258.472 283.704,257.537C284.332,259.356 284.976,261.222 285.605,263.044C282.214,262.214 278.677,261.348 275.151,260.485ZM281.545,254.407C280.642,252.285 280.73,250.584 281.258,248.421C282.161,250.518 282.134,252.216 281.545,254.407ZM269.713,253.188C270.903,253.25 271.977,253.424 273.035,253.334C274.828,253.181 276.263,252.171 277.069,250.218C277.846,248.335 277.667,246.451 276.632,244.769C276.259,244.162 275.717,243.586 275.144,243.29C273.55,242.467 272.334,243.749 272.537,246.053C272.769,245.958 272.996,245.905 273.191,245.78C274.457,244.972 275.321,245.375 275.72,246.975C276.132,248.628 275.382,250.435 273.927,251.162C270.668,252.792 266.547,249.992 266.225,246.37C266.007,243.916 267.204,241.311 269.433,240.093C271.416,239.009 273.52,238.939 275.614,239.302C278.02,239.719 280.221,240.792 282.21,242.525C283.968,244.058 284.945,246.159 285.364,248.559C285.74,250.705 285.002,252.572 283.4,254.281C283.4,253.434 283.461,252.842 283.388,252.274C283.198,250.811 283.042,249.324 282.676,247.918C282.534,247.372 281.869,246.682 281.432,246.672C280.973,246.662 280.348,247.274 280.066,247.813C279.268,249.339 279.28,251.081 279.549,252.783C279.734,253.947 280.091,255.073 280.417,256.404C275.981,258.37 271.351,259.035 266.214,259.276C268.845,258.004 269.99,256.068 269.713,253.188ZM263.061,255.691C262.496,254.401 262.863,253.221 263.579,252.152C264.285,251.101 265.2,250.528 266.603,250.397C265.858,251.013 265.19,251.392 264.719,251.99C263.711,253.272 264.05,254.937 265.406,255.634C265.637,255.752 266.123,255.756 266.192,255.612C266.336,255.311 266.384,254.828 266.279,254.509C266.162,254.153 265.831,253.895 265.569,253.563C266.024,252.473 266.699,252.284 267.51,252.742C268.314,253.196 268.55,254.188 268.18,255.261C267.733,256.559 266.682,257.453 265.55,257.449C264.437,257.447 263.566,256.847 263.061,255.691ZM255.064,257.005C257.186,255.743 259.161,254.568 261.161,253.379C261.719,256.892 261.807,257.074 263.824,258.895C262.165,259.296 258.049,258.438 255.064,257.005ZM253.11,255.296C253.424,254.899 253.709,254.462 254.057,254.112C254.881,253.286 255.78,252.558 256.569,251.689C259.963,247.95 260.586,241.92 256.833,237.767C255.551,236.349 254.264,235.012 252.569,234.466C252.753,232.355 252.912,230.528 253.077,228.626C253.196,228.654 253.389,228.63 253.485,228.732C255.76,231.155 258.039,233.573 260.286,236.031C262.082,237.992 263.489,240.232 263.99,243.171C264.377,245.441 263.938,247.417 262.698,249.121C262.118,249.918 261.43,250.691 260.66,251.191C258.255,252.753 255.787,254.178 253.343,255.656C253.266,255.536 253.188,255.416 253.11,255.296ZM250.439,258.09C249.936,257.541 249.492,257.285 249.485,257.012C249.441,255.385 248.532,254.455 247.617,253.527C246.705,252.603 245.751,251.736 244.834,250.819C241.305,247.288 241.156,242.435 244.511,238.644C245.362,237.684 246.386,236.938 247.271,236.146C249.036,237.618 249.704,240.903 248.69,242.719C248.378,243.277 247.859,243.753 247.344,244.034C247.101,244.167 246.486,243.865 246.332,243.556C246.183,243.258 246.356,242.668 246.5,242.263C246.574,242.057 246.885,241.942 247.107,241.843C247.628,241.612 248.007,241.207 247.644,240.595C247.489,240.333 246.914,240.251 246.579,240.34C245.547,240.615 244.904,241.406 244.77,242.691C244.648,243.86 244.999,244.82 245.821,245.456C246.725,246.155 247.676,246.015 248.524,245.306C249.054,244.862 249.489,244.26 250.011,243.679C250.479,244.196 250.926,244.778 251.446,245.243C252.337,246.039 253.499,246.074 254.318,245.432C255.274,244.683 255.282,243.546 255.211,242.383C255.131,241.071 254.285,240.61 253.411,240.308C253.186,240.23 252.903,240.388 252.625,240.524C252.533,240.569 252.441,240.612 252.352,240.643C252.396,240.741 252.438,240.84 252.478,240.941C252.602,241.241 252.722,241.544 252.893,241.798C253.029,241.999 253.41,241.995 253.505,242.198C253.681,242.577 253.923,243.231 253.787,243.427C253.544,243.775 252.99,244.113 252.655,244.018C251.68,243.743 251.175,242.708 251,241.679C250.653,239.634 251.058,237.762 252.51,236.104C254.918,237.566 256.928,239.402 257.729,242.532C258.577,245.853 257.396,248.505 255.378,250.719C254.542,251.635 253.626,252.453 252.717,253.268C251.484,254.372 250.536,255.672 250.439,258.09ZM244.325,254.21C242.564,253.149 240.736,252.196 239.093,250.915C235.904,248.425 235.17,244.808 236.763,240.678C237.664,238.342 239.218,236.658 240.748,234.959C242.629,232.87 244.565,230.851 246.483,228.81C246.601,228.684 246.774,228.628 247.052,228.461C247.189,230.518 247.311,232.349 247.446,234.383C245.93,235.086 244.51,236.288 243.204,237.771C239.26,242.25 240.325,248.543 243.786,252.007C244.973,253.195 246.199,254.327 247.261,255.811C246.281,255.28 245.285,254.787 244.325,254.21ZM236.421,259.396C236.382,259.279 236.343,259.159 236.304,259.041C236.923,258.274 237.711,257.615 238.114,256.712C238.539,255.76 238.597,254.578 238.844,253.356C240.818,254.516 242.868,255.722 244.919,256.927C244.922,257.07 244.924,257.212 244.926,257.356C242.091,258.037 239.256,258.716 236.421,259.396ZM231.915,255.375C231.515,254.328 231.651,253.495 232.319,252.905C233.021,252.285 233.498,252.401 234.498,253.498C234.236,253.85 233.912,254.167 233.73,254.572C233.619,254.821 233.625,255.309 233.764,255.501C233.905,255.697 234.309,255.794 234.537,255.708C235.911,255.191 236.358,253.481 235.483,252.126C235.198,251.684 234.829,251.317 234.508,250.927C236.038,251.097 237.058,252.304 237.18,254.108C237.289,255.727 236.499,257.009 235.161,257.382C233.915,257.731 232.477,256.84 231.915,255.375ZM219.597,256.395C220.338,254.311 220.758,252.257 220.534,250.117C220.447,249.289 220.293,248.407 219.955,247.691C219.225,246.147 217.96,246.197 217.38,247.821C216.798,249.452 216.352,251.17 216.717,253.005C216.784,253.341 216.792,253.693 216.835,254.105C215.081,252.837 214.265,250.322 214.799,248.039C215.384,245.542 216.514,243.513 218.377,242.094C221.878,239.427 225.637,238.359 229.713,239.719C230.603,240.016 231.493,240.644 232.185,241.381C234.772,244.134 234.38,248.488 231.378,250.566C229.753,251.691 227.993,252.06 226.183,251.162C224.542,250.347 223.82,248.408 224.457,246.653C224.987,245.19 225.629,244.932 226.823,245.699C227.024,245.827 227.231,245.942 227.531,246.12C227.942,244.902 227.548,244.067 226.843,243.467C226.088,242.822 225.244,242.94 224.483,243.543C222.973,244.739 222.448,246.492 222.624,248.55C222.805,250.661 223.841,252.083 225.453,252.886C226.953,253.633 228.511,253.482 230.321,253C230.03,256.021 231.25,257.861 233.654,259.267C228.639,259.024 224.109,258.343 219.597,256.395ZM218.647,248.624C219.485,251.08 219.414,252.505 218.477,254.039C217.699,252.25 217.997,250.567 218.647,248.624ZM214.444,263.066C215.092,261.227 215.743,259.376 216.388,257.547C219.087,258.478 221.937,259.46 224.896,260.479C221.275,261.375 217.831,262.228 214.444,263.066ZM208.618,265.092C207.47,265.333 206.445,266.069 205.398,266.771C203.373,268.129 201.16,269.093 198.738,270.372C199.964,263.877 199.848,257.554 199.846,251.239C199.845,248.577 200.35,246.035 201.331,243.665C201.743,242.669 202.357,241.711 203.059,240.975C204.815,239.135 206.942,238.167 209.261,237.849C210.88,237.627 212.286,238.244 213.152,239.911C214.037,241.614 214.823,243.428 213.782,245.485C213.628,245.789 213.481,246.115 213.407,246.454C213.122,247.762 212.522,248.637 211.301,248.648C210.1,248.658 208.491,247.374 208.262,246.06C207.974,244.408 207.996,242.763 209.382,241.674C209.801,241.346 210.301,240.987 209.921,240.356C209.532,239.708 208.948,239.986 208.466,240.334C206.986,241.402 206.243,244.475 206.949,246.679C207.14,247.274 207.433,247.823 207.734,248.521C207.188,248.733 206.635,248.922 206.098,249.161C203.039,250.519 201.444,253.363 201.772,256.849C202.025,259.531 203.308,261.186 205.474,261.629C207.725,262.089 210.314,260.662 211.141,258.505C211.769,256.87 211.29,255.31 209.944,254.598C208.5,253.834 206.807,254.525 206.327,256.139C206.232,256.458 206.417,256.893 206.474,257.275C206.789,257.205 207.142,257.215 207.408,257.039C207.652,256.879 207.768,256.468 207.998,256.253C208.559,255.731 209.115,255.892 209.641,256.375C210.219,256.904 210.011,257.504 209.73,258.081C209.041,259.495 206.938,260.371 205.401,259.904C203.995,259.477 203.006,257.978 203.141,256.046C203.218,254.961 203.52,253.769 204.036,252.883C205.429,250.486 209.548,249.084 212.126,251.499C214.839,254.04 215.492,258.212 213.43,261.296C212.19,263.151 210.727,264.65 208.618,265.092ZM197.797,237.414C199.082,239.249 199.338,240.992 199.321,242.85C198.064,241.516 197.578,239.838 197.797,237.414ZM224.086,231.248C224.767,228.225 225.918,225.525 228.098,223.604C230.306,221.659 232.777,221.424 235.302,222.372C238.801,223.684 239.912,227.503 239.677,230.746C239.517,232.944 237.483,234.595 235.608,234.168C233.815,233.76 232.329,231.175 232.752,229.198C232.951,228.269 233.594,227.807 234.397,228.069C234.678,228.16 234.917,228.449 235.198,228.521C235.744,228.661 236.166,228.031 235.863,227.47C235.625,227.03 235.23,226.587 234.824,226.418C233.146,225.719 231.397,227.219 231.285,229.408C231.106,232.891 233.71,236.371 236.257,235.831C236.59,235.761 236.947,235.856 237.345,235.878C236.289,238.064 235.344,240.024 234.36,242.063C233.369,240.482 232.192,238.949 230.467,238.398C228.868,237.887 227.216,237.609 225.56,237.221C226.33,236.469 227.219,235.686 228.019,234.792C228.607,234.134 229.36,233.418 228.846,232.26C228.467,231.409 227.71,231.335 226.419,231.951C225.978,232.161 225.555,232.444 225.157,232.753C224.76,233.06 224.404,233.442 223.713,234.088C223.865,232.89 223.907,232.047 224.086,231.248ZM237.227,215.477C237.506,217.361 236.933,218.69 235.411,219.679C235.391,217.719 236.344,216.617 237.227,215.477ZM248.06,221.602C247.019,226.174 244.225,228.965 241.346,231.876C241.075,229.681 240.825,227.652 240.552,225.438C243.421,225.276 245.996,224.125 248.06,221.602ZM249.881,221.956C252.059,225.788 252.153,232.468 249.966,236.262C247.534,231.393 248.604,226.701 249.881,221.956ZM259.463,225.412C259.225,227.612 258.997,229.721 258.762,231.895C256.002,229.059 253.028,226.26 252.03,221.603C254.092,224.105 256.581,225.28 259.463,225.412ZM274.615,234.654C274.568,234.743 274.52,234.831 274.473,234.919C274.109,234.633 273.746,234.347 273.383,234.061C273.448,233.957 273.514,233.853 273.58,233.749C273.925,234.051 274.27,234.353 274.615,234.654ZM266.209,221.968C269.568,221.474 272.198,222.94 274.107,226.253C275.385,228.473 276.113,230.917 276.316,233.853C275.81,233.455 275.421,233.099 274.994,232.827C274.311,232.392 273.631,231.848 272.895,231.667C272.399,231.545 271.68,231.792 271.288,232.189C270.718,232.765 271.096,233.57 271.508,234.077C272.211,234.942 273.007,235.702 273.781,236.484C274.041,236.747 274.351,236.941 274.691,237.209C272.924,237.609 271.225,237.837 269.61,238.402C267.963,238.979 266.661,240.279 265.758,242.205C264.71,240.007 263.78,238.056 262.777,235.952C263.227,235.91 263.721,235.845 264.216,235.821C266.898,235.691 269.249,232.276 268.797,229.156C268.494,227.07 266.772,225.752 265.197,226.4C264.331,226.756 264.186,227.152 264.475,228.629C264.86,228.444 265.216,228.232 265.591,228.1C266.525,227.772 267.262,228.364 267.382,229.505C267.607,231.631 266.031,233.983 264.219,234.227C262.275,234.489 260.294,232.598 260.312,230.255C260.35,225.792 262.46,222.519 266.209,221.968ZM262.947,215.316C263.848,216.616 264.581,217.799 264.739,219.501C262.939,218.507 262.588,217.702 262.947,215.316ZM302.201,237.769C302.474,239.715 302.003,241.402 300.761,243.174C300.558,240.878 301.086,239.237 302.201,237.769ZM184.541,283.215C184.904,278.658 187.053,275.784 189.582,276.609C188.333,279.38 186.602,281.334 184.541,283.215ZM220.474,227.09C220.587,227.033 220.7,226.977 220.813,226.92C221.211,227.958 221.608,228.996 222.006,230.034C220.974,229.284 220.617,228.238 220.474,227.09ZM279.316,226.816C279.453,226.906 279.591,226.995 279.729,227.085C279.337,228.135 278.945,229.184 278.553,230.234C278.226,228.809 278.902,227.875 279.316,226.816ZM316.733,281.047C316.257,278.328 314.937,276.286 312.872,274.945C313.14,274.201 313.392,273.631 313.553,273.026C314.381,269.937 312.909,266.839 310.368,266.28C309.272,266.039 308.112,266.783 307.728,267.971C307.369,269.085 307.728,270.507 308.616,271.174C309.091,271.531 309.694,272.171 310.191,271.331C310.651,270.551 310.013,270.226 309.539,269.91C309.487,269.876 309.416,269.837 309.398,269.781C309.281,269.41 308.997,268.901 309.109,268.688C309.291,268.34 309.73,267.993 310.068,267.982C311.046,267.95 312.094,269.184 312.284,270.422C312.518,271.944 312.007,273.93 311.152,274.192C310.157,274.497 309.045,274.826 308.079,274.592C306.041,274.099 304.402,272.667 303.695,270.266C302.554,266.392 303.093,262.681 304.902,259.233C305.475,258.139 306.367,257.57 307.497,257.654C308.485,257.725 309.228,258.44 309.428,259.52C309.629,260.602 309.239,261.638 308.424,261.961C307.498,262.329 306.835,261.923 306.339,260.903C306.193,260.6 305.694,260.538 305.356,260.365C305.301,260.875 305.082,261.46 305.22,261.879C305.653,263.197 307.123,263.997 308.369,263.74C309.684,263.47 310.661,262.287 310.84,260.75C311.208,257.576 308.901,255.226 306.287,256.104C304.575,256.68 303.589,258.151 302.902,259.972C302.575,260.839 302.31,261.738 302.017,262.622C301.705,260.421 301.758,258.283 301.692,256.153C301.6,253.17 301.53,250.175 301.225,247.218C301.097,245.979 301.103,245.13 301.887,244.183C303.5,242.236 303.918,239.707 303.85,237.079C303.808,235.455 302.952,234.976 301.775,235.805C300.729,236.54 300.222,237.75 299.807,239.031C299.605,239.651 299.41,240.275 299.159,241.061C297.136,238.539 294.82,237.103 292.178,236.414C288.537,235.465 286.071,237.08 284.796,241.189C284.702,241.492 284.569,241.777 284.542,241.846C282.211,240.408 279.993,239.04 277.625,237.579C277.689,236.327 277.767,234.791 277.851,233.159C279.865,231.008 280.503,229.984 280.933,227.733C281.101,226.851 281.167,225.888 281.062,224.997C280.908,223.694 280.064,223.379 279.252,224.248C278.901,224.624 278.614,225.103 278.358,225.581C277.862,226.506 277.409,227.463 276.824,228.637C274.724,223.225 271.658,219.792 266.537,220.185C266.108,218.859 265.815,217.617 265.316,216.504C264.813,215.381 264.158,214.337 263.475,213.35C262.651,212.16 261.703,212.388 261.417,213.895C261.006,216.055 261.14,218.158 262.507,219.903C262.806,220.285 263.111,220.661 263.377,220.994C262.564,221.759 261.867,222.433 261.152,223.079C260.881,223.324 260.586,223.643 260.275,223.695C256.553,224.314 252.586,221.09 251.636,216.715C251.075,214.13 252.354,210.428 254.287,209.044C255.471,208.196 256.73,208.221 257.656,209.111C258.452,209.878 258.954,211.839 258.631,213.024C258.44,213.728 258.134,214.373 257.413,214.387C256.751,214.4 256.237,214.087 256.165,213.191C256.101,212.367 255.732,211.981 255.079,212.326C254.469,212.649 254.477,213.285 254.699,213.965C255.114,215.236 255.944,215.88 257.019,216.047C258.045,216.206 258.911,215.764 259.513,214.723C260.42,213.153 260.286,210.468 259.219,208.675C258.247,207.041 256.452,206.375 254.731,206.988C252.553,207.765 251.543,209.868 250.613,212.059C250.397,212.569 250.235,213.111 249.949,213.919C249.394,211.519 248.571,209.713 247.255,208.275C245.601,206.469 243.507,206.227 241.788,207.586C240.344,208.728 239.575,211.583 240.135,213.725C240.468,215.001 241.187,215.777 242.29,216.031C243.778,216.373 245.458,215.002 245.425,213.404C245.417,213.012 245.049,212.629 244.847,212.242C244.546,212.488 244.221,212.701 243.958,212.994C243.857,213.107 243.948,213.432 243.867,213.605C243.374,214.656 242.195,214.66 241.668,213.628C241.157,212.628 241.346,210.643 242.053,209.582C242.742,208.549 243.901,208.081 244.967,208.607C245.611,208.926 246.275,209.415 246.718,210.039C249.417,213.838 249.342,217.714 245.717,221.621C243.952,223.524 241.72,223.76 239.59,223.688C238.568,222.74 237.631,221.872 236.559,220.877C236.854,220.595 237.154,220.351 237.41,220.054C238.785,218.46 239.08,216.468 238.735,214.343C238.635,213.731 238.244,212.985 237.803,212.7C237.148,212.276 236.744,213.077 236.379,213.635C235.122,215.555 233.912,217.504 233.786,220.208C228.409,219.711 225.303,223.262 223.196,228.734C222.842,227.916 222.627,227.325 222.343,226.786C221.931,226.002 221.542,225.169 221.001,224.525C220.676,224.139 220.052,223.86 219.617,223.941C219.352,223.991 219.17,224.807 218.991,225.299C218.926,225.48 218.981,225.721 218.98,225.935C218.976,229.032 220.162,231.373 222.363,233.192L222.363,237.872C221.268,238.396 220.062,238.848 218.962,239.537C217.805,240.26 216.75,241.21 215.586,242.111C215.353,241.436 215.162,240.773 214.903,240.148C213.789,237.47 212.034,235.89 209.444,236.254C207.976,236.461 206.461,236.856 205.128,237.58C203.577,238.422 202.2,239.716 200.741,240.819C200.555,240.135 200.382,239.31 200.109,238.535C199.685,237.333 199.096,236.257 198.058,235.663C197.063,235.094 196.351,235.486 196.269,236.764C196.094,239.482 196.561,242.014 198.099,244.153C198.443,244.633 198.806,245.094 199.133,245.528C197.854,251.115 198.738,256.767 198.118,262.318C197.732,261.63 197.569,260.878 197.252,260.233C196.742,259.197 196.252,258.08 195.535,257.267C193.842,255.349 191.318,255.525 189.91,257.491C188.761,259.093 188.889,261.465 190.199,262.881C191.4,264.179 193.28,264.077 194.412,262.654C195.101,261.787 195.298,260.793 194.796,260.435C193.958,259.836 193.855,260.83 193.501,261.339C192.997,262.061 192.333,262.333 191.567,261.945C190.858,261.587 190.454,260.593 190.594,259.633C190.746,258.594 191.53,257.764 192.478,257.66C193.682,257.528 194.61,258.145 195.222,259.313C196.665,262.072 197.257,265.089 196.813,268.305C196.671,269.333 196.318,270.359 195.905,271.288C195.2,272.869 193.965,273.716 192.611,274.447C191.327,275.139 190.205,273.835 188.981,274.27C188.875,274.308 188.679,274.068 188.55,273.925C187.257,272.498 187.415,269.591 188.884,268.487C189.474,268.044 190.214,267.449 190.819,268.347C191.422,269.241 190.715,269.664 190.195,270.186C189.969,270.413 190.001,271.001 189.915,271.425C190.246,271.47 190.614,271.648 190.901,271.536C192.111,271.061 192.678,269.612 192.328,268.063C192.039,266.781 190.801,265.986 189.595,266.305C187.155,266.951 185.739,269.814 186.457,272.701C186.64,273.438 186.914,274.144 187.176,274.956C184.684,276.558 183.496,279.18 183.084,282.358C182.996,283.041 183.012,283.794 183.16,284.459C183.376,285.426 183.92,285.65 184.693,285.199C185.153,284.929 185.574,284.564 186.034,284.226C186.08,284.408 186.122,284.482 186.111,284.543C186.013,285.098 185.938,285.663 185.796,286.202C184.667,290.491 185.846,293.725 188.978,296.082C189.181,296.235 189.37,296.413 189.571,296.57C194.035,300.042 198.907,302.439 204.013,304.193C204.693,304.426 205.433,304.46 206.147,304.473C206.365,304.477 206.724,304.14 206.771,303.893C206.817,303.649 206.611,303.193 206.408,303.058C205.996,302.785 205.503,302.691 205.058,302.48C201.271,300.678 197.45,298.967 193.717,297.019C191.632,295.931 189.68,294.465 188.091,292.455C186.801,290.823 186.512,289.509 187.482,287.625C188.441,285.762 189.589,283.972 190.892,282.434C195.364,277.156 200.783,273.665 206.71,271.265C216.904,267.137 227.45,265.249 238.167,264.492C240.557,264.324 242.942,264.02 245.333,263.941C247.637,263.865 249.87,263.182 252.251,263.562C256.397,264.223 260.601,264.377 264.783,264.731C273.2,265.444 281.484,267.083 289.602,269.816C296.804,272.24 303.477,275.92 308.947,282.139C310.317,283.697 311.514,285.54 312.527,287.447C313.527,289.328 313.274,290.996 311.912,292.458C310.674,293.786 309.324,295.021 307.888,296.026C303.778,298.904 299.33,300.876 294.79,302.575C294.204,302.794 293.658,303.164 293.094,303.464C293.116,303.702 293.139,303.94 293.162,304.179C293.59,304.297 294.027,304.543 294.445,304.506C295.157,304.442 295.873,304.26 296.562,304.023C300.91,302.527 305.054,300.439 308.958,297.728C310.248,296.832 311.488,295.78 312.61,294.609C314.228,292.919 315.132,290.852 314.515,288.144C314.227,286.883 314.15,285.555 313.953,284.08C314.478,284.505 314.846,284.86 315.257,285.124C316.225,285.745 316.91,285.337 316.962,284.007C317,283.025 316.902,282.013 316.733,281.047Z" style="fill:rgb(35,31,32);fill-rule:nonzero;"/>
            </g>
        </g>
    </g>
</svg>
